# Original EliteCrafting prototype. Metres; Y up; +Z front.
mtllib growth-stone.mtl
o ECF_GrowthLesser_Prototype
v 0.0447640 0.0825056 0.0320000
v 0.0571330 0.1053032 0.0160000
v -0.0043320 0.0896800 0.0320000
v -0.0043320 0.0896800 0.0320000
v 0.0571330 0.1053032 0.0160000
v -0.0055290 0.1144600 0.0160000
v -0.0043320 0.0896800 0.0320000
v -0.0055290 0.1144600 0.0160000
v -0.0469300 0.0717440 0.0320000
v -0.0469300 0.0717440 0.0320000
v -0.0055290 0.1144600 0.0160000
v -0.0598975 0.0915680 0.0160000
v -0.0469300 0.0717440 0.0320000
v -0.0598975 0.0915680 0.0160000
v -0.0635360 0.0358720 0.0320000
v -0.0635360 0.0358720 0.0320000
v -0.0598975 0.0915680 0.0160000
v -0.0810920 0.0457840 0.0160000
v -0.0635360 0.0358720 0.0320000
v -0.0810920 0.0457840 0.0160000
v -0.0722000 -0.0080712 0.0320000
v -0.0722000 -0.0080712 0.0320000
v -0.0810920 0.0457840 0.0160000
v -0.0921500 -0.0103014 0.0160000
v -0.0722000 -0.0080712 0.0320000
v -0.0921500 -0.0103014 0.0160000
v -0.0570380 -0.0556016 0.0320000
v -0.0570380 -0.0556016 0.0320000
v -0.0921500 -0.0103014 0.0160000
v -0.0727985 -0.0709652 0.0160000
v -0.0570380 -0.0556016 0.0320000
v -0.0727985 -0.0709652 0.0160000
v -0.0238260 -0.0860928 0.0320000
v -0.0238260 -0.0860928 0.0320000
v -0.0727985 -0.0709652 0.0160000
v -0.0304095 -0.1098816 0.0160000
v -0.0238260 -0.0860928 0.0320000
v -0.0304095 -0.1098816 0.0160000
v 0.0194940 -0.0896800 0.0320000
v 0.0194940 -0.0896800 0.0320000
v -0.0304095 -0.1098816 0.0160000
v 0.0248805 -0.1144600 0.0160000
v 0.0194940 -0.0896800 0.0320000
v 0.0248805 -0.1144600 0.0160000
v 0.0555940 -0.0600856 0.0320000
v 0.0555940 -0.0600856 0.0320000
v 0.0248805 -0.1144600 0.0160000
v 0.0709555 -0.0766882 0.0160000
v 0.0555940 -0.0600856 0.0320000
v 0.0709555 -0.0766882 0.0160000
v 0.0707560 -0.0188328 0.0320000
v 0.0707560 -0.0188328 0.0320000
v 0.0709555 -0.0766882 0.0160000
v 0.0903070 -0.0240366 0.0160000
v 0.0707560 -0.0188328 0.0320000
v 0.0903070 -0.0240366 0.0160000
v 0.0649800 0.0295944 0.0320000
v 0.0649800 0.0295944 0.0320000
v 0.0903070 -0.0240366 0.0160000
v 0.0829350 0.0377718 0.0160000
v 0.0649800 0.0295944 0.0320000
v 0.0829350 0.0377718 0.0160000
v 0.0563160 0.0609824 0.0320000
v 0.0563160 0.0609824 0.0320000
v 0.0829350 0.0377718 0.0160000
v 0.0718770 0.0778328 0.0160000
v 0.0563160 0.0609824 0.0320000
v 0.0718770 0.0778328 0.0160000
v 0.0447640 0.0825056 0.0320000
v 0.0447640 0.0825056 0.0320000
v 0.0718770 0.0778328 0.0160000
v 0.0571330 0.1053032 0.0160000
v 0.0571330 0.1053032 0.0160000
v 0.0589000 0.1085600 -0.0090000
v -0.0055290 0.1144600 0.0160000
v -0.0055290 0.1144600 0.0160000
v 0.0589000 0.1085600 -0.0090000
v -0.0057000 0.1180000 -0.0090000
v -0.0055290 0.1144600 0.0160000
v -0.0057000 0.1180000 -0.0090000
v -0.0598975 0.0915680 0.0160000
v -0.0598975 0.0915680 0.0160000
v -0.0057000 0.1180000 -0.0090000
v -0.0617500 0.0944000 -0.0090000
v -0.0598975 0.0915680 0.0160000
v -0.0617500 0.0944000 -0.0090000
v -0.0810920 0.0457840 0.0160000
v -0.0810920 0.0457840 0.0160000
v -0.0617500 0.0944000 -0.0090000
v -0.0836000 0.0472000 -0.0090000
v -0.0810920 0.0457840 0.0160000
v -0.0836000 0.0472000 -0.0090000
v -0.0921500 -0.0103014 0.0160000
v -0.0921500 -0.0103014 0.0160000
v -0.0836000 0.0472000 -0.0090000
v -0.0950000 -0.0106200 -0.0090000
v -0.0921500 -0.0103014 0.0160000
v -0.0950000 -0.0106200 -0.0090000
v -0.0727985 -0.0709652 0.0160000
v -0.0727985 -0.0709652 0.0160000
v -0.0950000 -0.0106200 -0.0090000
v -0.0750500 -0.0731600 -0.0090000
v -0.0727985 -0.0709652 0.0160000
v -0.0750500 -0.0731600 -0.0090000
v -0.0304095 -0.1098816 0.0160000
v -0.0304095 -0.1098816 0.0160000
v -0.0750500 -0.0731600 -0.0090000
v -0.0313500 -0.1132800 -0.0090000
v -0.0304095 -0.1098816 0.0160000
v -0.0313500 -0.1132800 -0.0090000
v 0.0248805 -0.1144600 0.0160000
v 0.0248805 -0.1144600 0.0160000
v -0.0313500 -0.1132800 -0.0090000
v 0.0256500 -0.1180000 -0.0090000
v 0.0248805 -0.1144600 0.0160000
v 0.0256500 -0.1180000 -0.0090000
v 0.0709555 -0.0766882 0.0160000
v 0.0709555 -0.0766882 0.0160000
v 0.0256500 -0.1180000 -0.0090000
v 0.0731500 -0.0790600 -0.0090000
v 0.0709555 -0.0766882 0.0160000
v 0.0731500 -0.0790600 -0.0090000
v 0.0903070 -0.0240366 0.0160000
v 0.0903070 -0.0240366 0.0160000
v 0.0731500 -0.0790600 -0.0090000
v 0.0931000 -0.0247800 -0.0090000
v 0.0903070 -0.0240366 0.0160000
v 0.0931000 -0.0247800 -0.0090000
v 0.0829350 0.0377718 0.0160000
v 0.0829350 0.0377718 0.0160000
v 0.0931000 -0.0247800 -0.0090000
v 0.0855000 0.0389400 -0.0090000
v 0.0829350 0.0377718 0.0160000
v 0.0855000 0.0389400 -0.0090000
v 0.0718770 0.0778328 0.0160000
v 0.0718770 0.0778328 0.0160000
v 0.0855000 0.0389400 -0.0090000
v 0.0741000 0.0802400 -0.0090000
v 0.0718770 0.0778328 0.0160000
v 0.0741000 0.0802400 -0.0090000
v 0.0571330 0.1053032 0.0160000
v 0.0571330 0.1053032 0.0160000
v 0.0741000 0.0802400 -0.0090000
v 0.0589000 0.1085600 -0.0090000
v 0.0589000 0.1085600 -0.0090000
v 0.0453530 0.0835912 -0.0330000
v -0.0057000 0.1180000 -0.0090000
v -0.0057000 0.1180000 -0.0090000
v 0.0453530 0.0835912 -0.0330000
v -0.0043890 0.0908600 -0.0330000
v -0.0057000 0.1180000 -0.0090000
v -0.0043890 0.0908600 -0.0330000
v -0.0617500 0.0944000 -0.0090000
v -0.0617500 0.0944000 -0.0090000
v -0.0043890 0.0908600 -0.0330000
v -0.0475475 0.0726880 -0.0330000
v -0.0617500 0.0944000 -0.0090000
v -0.0475475 0.0726880 -0.0330000
v -0.0836000 0.0472000 -0.0090000
v -0.0836000 0.0472000 -0.0090000
v -0.0475475 0.0726880 -0.0330000
v -0.0643720 0.0363440 -0.0330000
v -0.0836000 0.0472000 -0.0090000
v -0.0643720 0.0363440 -0.0330000
v -0.0950000 -0.0106200 -0.0090000
v -0.0950000 -0.0106200 -0.0090000
v -0.0643720 0.0363440 -0.0330000
v -0.0731500 -0.0081774 -0.0330000
v -0.0950000 -0.0106200 -0.0090000
v -0.0731500 -0.0081774 -0.0330000
v -0.0750500 -0.0731600 -0.0090000
v -0.0750500 -0.0731600 -0.0090000
v -0.0731500 -0.0081774 -0.0330000
v -0.0577885 -0.0563332 -0.0330000
v -0.0750500 -0.0731600 -0.0090000
v -0.0577885 -0.0563332 -0.0330000
v -0.0313500 -0.1132800 -0.0090000
v -0.0313500 -0.1132800 -0.0090000
v -0.0577885 -0.0563332 -0.0330000
v -0.0241395 -0.0872256 -0.0330000
v -0.0313500 -0.1132800 -0.0090000
v -0.0241395 -0.0872256 -0.0330000
v 0.0256500 -0.1180000 -0.0090000
v 0.0256500 -0.1180000 -0.0090000
v -0.0241395 -0.0872256 -0.0330000
v 0.0197505 -0.0908600 -0.0330000
v 0.0256500 -0.1180000 -0.0090000
v 0.0197505 -0.0908600 -0.0330000
v 0.0731500 -0.0790600 -0.0090000
v 0.0731500 -0.0790600 -0.0090000
v 0.0197505 -0.0908600 -0.0330000
v 0.0563255 -0.0608762 -0.0330000
v 0.0731500 -0.0790600 -0.0090000
v 0.0563255 -0.0608762 -0.0330000
v 0.0931000 -0.0247800 -0.0090000
v 0.0931000 -0.0247800 -0.0090000
v 0.0563255 -0.0608762 -0.0330000
v 0.0716870 -0.0190806 -0.0330000
v 0.0931000 -0.0247800 -0.0090000
v 0.0716870 -0.0190806 -0.0330000
v 0.0855000 0.0389400 -0.0090000
v 0.0855000 0.0389400 -0.0090000
v 0.0716870 -0.0190806 -0.0330000
v 0.0658350 0.0299838 -0.0330000
v 0.0855000 0.0389400 -0.0090000
v 0.0658350 0.0299838 -0.0330000
v 0.0741000 0.0802400 -0.0090000
v 0.0741000 0.0802400 -0.0090000
v 0.0658350 0.0299838 -0.0330000
v 0.0570570 0.0617848 -0.0330000
v 0.0741000 0.0802400 -0.0090000
v 0.0570570 0.0617848 -0.0330000
v 0.0589000 0.1085600 -0.0090000
v 0.0589000 0.1085600 -0.0090000
v 0.0570570 0.0617848 -0.0330000
v 0.0453530 0.0835912 -0.0330000
v 0.0000000 0.0020000 0.0360000
v 0.0447640 0.0825056 0.0320000
v -0.0043320 0.0896800 0.0320000
v -0.0040000 0.0000000 -0.0380000
v -0.0043890 0.0908600 -0.0330000
v 0.0453530 0.0835912 -0.0330000
v 0.0000000 0.0020000 0.0360000
v -0.0043320 0.0896800 0.0320000
v -0.0469300 0.0717440 0.0320000
v -0.0040000 0.0000000 -0.0380000
v -0.0475475 0.0726880 -0.0330000
v -0.0043890 0.0908600 -0.0330000
v 0.0000000 0.0020000 0.0360000
v -0.0469300 0.0717440 0.0320000
v -0.0635360 0.0358720 0.0320000
v -0.0040000 0.0000000 -0.0380000
v -0.0643720 0.0363440 -0.0330000
v -0.0475475 0.0726880 -0.0330000
v 0.0000000 0.0020000 0.0360000
v -0.0635360 0.0358720 0.0320000
v -0.0722000 -0.0080712 0.0320000
v -0.0040000 0.0000000 -0.0380000
v -0.0731500 -0.0081774 -0.0330000
v -0.0643720 0.0363440 -0.0330000
v 0.0000000 0.0020000 0.0360000
v -0.0722000 -0.0080712 0.0320000
v -0.0570380 -0.0556016 0.0320000
v -0.0040000 0.0000000 -0.0380000
v -0.0577885 -0.0563332 -0.0330000
v -0.0731500 -0.0081774 -0.0330000
v 0.0000000 0.0020000 0.0360000
v -0.0570380 -0.0556016 0.0320000
v -0.0238260 -0.0860928 0.0320000
v -0.0040000 0.0000000 -0.0380000
v -0.0241395 -0.0872256 -0.0330000
v -0.0577885 -0.0563332 -0.0330000
v 0.0000000 0.0020000 0.0360000
v -0.0238260 -0.0860928 0.0320000
v 0.0194940 -0.0896800 0.0320000
v -0.0040000 0.0000000 -0.0380000
v 0.0197505 -0.0908600 -0.0330000
v -0.0241395 -0.0872256 -0.0330000
v 0.0000000 0.0020000 0.0360000
v 0.0194940 -0.0896800 0.0320000
v 0.0555940 -0.0600856 0.0320000
v -0.0040000 0.0000000 -0.0380000
v 0.0563255 -0.0608762 -0.0330000
v 0.0197505 -0.0908600 -0.0330000
v 0.0000000 0.0020000 0.0360000
v 0.0555940 -0.0600856 0.0320000
v 0.0707560 -0.0188328 0.0320000
v -0.0040000 0.0000000 -0.0380000
v 0.0716870 -0.0190806 -0.0330000
v 0.0563255 -0.0608762 -0.0330000
v 0.0000000 0.0020000 0.0360000
v 0.0707560 -0.0188328 0.0320000
v 0.0649800 0.0295944 0.0320000
v -0.0040000 0.0000000 -0.0380000
v 0.0658350 0.0299838 -0.0330000
v 0.0716870 -0.0190806 -0.0330000
v 0.0000000 0.0020000 0.0360000
v 0.0649800 0.0295944 0.0320000
v 0.0563160 0.0609824 0.0320000
v -0.0040000 0.0000000 -0.0380000
v 0.0570570 0.0617848 -0.0330000
v 0.0658350 0.0299838 -0.0330000
v 0.0000000 0.0020000 0.0360000
v 0.0563160 0.0609824 0.0320000
v 0.0447640 0.0825056 0.0320000
v -0.0040000 0.0000000 -0.0380000
v 0.0453530 0.0835912 -0.0330000
v 0.0570570 0.0617848 -0.0330000
vt 0.3619100 0.8173292
vt 0.3928325 0.9050123
vt 0.2391700 0.8449231
vt 0.2391700 0.8449231
vt 0.3928325 0.9050123
vt 0.2361775 0.9402308
vt 0.2391700 0.8449231
vt 0.2361775 0.9402308
vt 0.1326750 0.7759385
vt 0.1326750 0.7759385
vt 0.2361775 0.9402308
vt 0.1002562 0.8521846
vt 0.1326750 0.7759385
vt 0.1002562 0.8521846
vt 0.0911600 0.6379692
vt 0.0911600 0.6379692
vt 0.1002562 0.8521846
vt 0.0472700 0.6760923
vt 0.0911600 0.6379692
vt 0.0472700 0.6760923
vt 0.0695000 0.4689569
vt 0.0695000 0.4689569
vt 0.0472700 0.6760923
vt 0.0196250 0.4603792
vt 0.0695000 0.4689569
vt 0.0196250 0.4603792
vt 0.1074050 0.2861477
vt 0.1074050 0.2861477
vt 0.0196250 0.4603792
vt 0.0680038 0.2270569
vt 0.1074050 0.2861477
vt 0.0680038 0.2270569
vt 0.1904350 0.1688738
vt 0.1904350 0.1688738
vt 0.0680038 0.2270569
vt 0.1739762 0.0773785
vt 0.1904350 0.1688738
vt 0.1739762 0.0773785
vt 0.2987350 0.1550769
vt 0.2987350 0.1550769
vt 0.1739762 0.0773785
vt 0.3122012 0.0597692
vt 0.2987350 0.1550769
vt 0.3122012 0.0597692
vt 0.3889850 0.2689015
vt 0.3889850 0.2689015
vt 0.3122012 0.0597692
vt 0.4273887 0.2050454
vt 0.3889850 0.2689015
vt 0.4273887 0.2050454
vt 0.4268900 0.4275662
vt 0.4268900 0.4275662
vt 0.4273887 0.2050454
vt 0.4757675 0.4075515
vt 0.4268900 0.4275662
vt 0.4757675 0.4075515
vt 0.4124500 0.6138246
vt 0.4124500 0.6138246
vt 0.4757675 0.4075515
vt 0.4573375 0.6452762
vt 0.4124500 0.6138246
vt 0.4573375 0.6452762
vt 0.3907900 0.7345477
vt 0.3907900 0.7345477
vt 0.4573375 0.6452762
vt 0.4296925 0.7993569
vt 0.3907900 0.7345477
vt 0.4296925 0.7993569
vt 0.3619100 0.8173292
vt 0.3619100 0.8173292
vt 0.4296925 0.7993569
vt 0.3928325 0.9050123
vt 0.8928325 0.9050123
vt 0.8972500 0.9175385
vt 0.7361775 0.9402308
vt 0.7361775 0.9402308
vt 0.8972500 0.9175385
vt 0.7357500 0.9538462
vt 0.7361775 0.9402308
vt 0.7357500 0.9538462
vt 0.6002562 0.8521846
vt 0.6002562 0.8521846
vt 0.7357500 0.9538462
vt 0.5956250 0.8630769
vt 0.6002562 0.8521846
vt 0.5956250 0.8630769
vt 0.5472700 0.6760923
vt 0.5472700 0.6760923
vt 0.5956250 0.8630769
vt 0.5410000 0.6815385
vt 0.5472700 0.6760923
vt 0.5410000 0.6815385
vt 0.5196250 0.4603792
vt 0.5196250 0.4603792
vt 0.5410000 0.6815385
vt 0.5125000 0.4591538
vt 0.5196250 0.4603792
vt 0.5125000 0.4591538
vt 0.5680038 0.2270569
vt 0.5680038 0.2270569
vt 0.5125000 0.4591538
vt 0.5623750 0.2186154
vt 0.5680038 0.2270569
vt 0.5623750 0.2186154
vt 0.6739762 0.0773785
vt 0.6739762 0.0773785
vt 0.5623750 0.2186154
vt 0.6716250 0.0643077
vt 0.6739762 0.0773785
vt 0.6716250 0.0643077
vt 0.8122012 0.0597692
vt 0.8122012 0.0597692
vt 0.6716250 0.0643077
vt 0.8141250 0.0461538
vt 0.8122012 0.0597692
vt 0.8141250 0.0461538
vt 0.9273887 0.2050454
vt 0.9273887 0.2050454
vt 0.8141250 0.0461538
vt 0.9328750 0.1959231
vt 0.9273887 0.2050454
vt 0.9328750 0.1959231
vt 0.9757675 0.4075515
vt 0.9757675 0.4075515
vt 0.9328750 0.1959231
vt 0.9827500 0.4046923
vt 0.9757675 0.4075515
vt 0.9827500 0.4046923
vt 0.9573375 0.6452762
vt 0.9573375 0.6452762
vt 0.9827500 0.4046923
vt 0.9637500 0.6497692
vt 0.9573375 0.6452762
vt 0.9637500 0.6497692
vt 0.9296925 0.7993569
vt 0.9296925 0.7993569
vt 0.9637500 0.6497692
vt 0.9352500 0.8086154
vt 0.9296925 0.7993569
vt 0.9352500 0.8086154
vt 0.8928325 0.9050123
vt 0.8928325 0.9050123
vt 0.9352500 0.8086154
vt 0.8972500 0.9175385
vt 0.8972500 0.9175385
vt 0.8633825 0.8215046
vt 0.7357500 0.9538462
vt 0.7357500 0.9538462
vt 0.8633825 0.8215046
vt 0.7390275 0.8494615
vt 0.7357500 0.9538462
vt 0.7390275 0.8494615
vt 0.5956250 0.8630769
vt 0.5956250 0.8630769
vt 0.7390275 0.8494615
vt 0.6311312 0.7795692
vt 0.5956250 0.8630769
vt 0.6311312 0.7795692
vt 0.5410000 0.6815385
vt 0.5410000 0.6815385
vt 0.6311312 0.7795692
vt 0.5890700 0.6397846
vt 0.5410000 0.6815385
vt 0.5890700 0.6397846
vt 0.5125000 0.4591538
vt 0.5125000 0.4591538
vt 0.5890700 0.6397846
vt 0.5671250 0.4685485
vt 0.5125000 0.4591538
vt 0.5671250 0.4685485
vt 0.5623750 0.2186154
vt 0.5623750 0.2186154
vt 0.5671250 0.4685485
vt 0.6055287 0.2833338
vt 0.5623750 0.2186154
vt 0.6055287 0.2833338
vt 0.6716250 0.0643077
vt 0.6716250 0.0643077
vt 0.6055287 0.2833338
vt 0.6896513 0.1645169
vt 0.6716250 0.0643077
vt 0.6896513 0.1645169
vt 0.8141250 0.0461538
vt 0.8141250 0.0461538
vt 0.6896513 0.1645169
vt 0.7993763 0.1505385
vt 0.8141250 0.0461538
vt 0.7993763 0.1505385
vt 0.9328750 0.1959231
vt 0.9328750 0.1959231
vt 0.7993763 0.1505385
vt 0.8908137 0.2658608
vt 0.9328750 0.1959231
vt 0.8908137 0.2658608
vt 0.9827500 0.4046923
vt 0.9827500 0.4046923
vt 0.8908137 0.2658608
vt 0.9292175 0.4266131
vt 0.9827500 0.4046923
vt 0.9292175 0.4266131
vt 0.9637500 0.6497692
vt 0.9637500 0.6497692
vt 0.9292175 0.4266131
vt 0.9145875 0.6153223
vt 0.9637500 0.6497692
vt 0.9145875 0.6153223
vt 0.9352500 0.8086154
vt 0.9352500 0.8086154
vt 0.9145875 0.6153223
vt 0.8926425 0.7376338
vt 0.9352500 0.8086154
vt 0.8926425 0.7376338
vt 0.8972500 0.9175385
vt 0.8972500 0.9175385
vt 0.8926425 0.7376338
vt 0.8633825 0.8215046
vt 0.2500000 0.5076923
vt 0.3619100 0.8173292
vt 0.2391700 0.8449231
vt 0.7400000 0.5000000
vt 0.7390275 0.8494615
vt 0.8633825 0.8215046
vt 0.2500000 0.5076923
vt 0.2391700 0.8449231
vt 0.1326750 0.7759385
vt 0.7400000 0.5000000
vt 0.6311312 0.7795692
vt 0.7390275 0.8494615
vt 0.2500000 0.5076923
vt 0.1326750 0.7759385
vt 0.0911600 0.6379692
vt 0.7400000 0.5000000
vt 0.5890700 0.6397846
vt 0.6311312 0.7795692
vt 0.2500000 0.5076923
vt 0.0911600 0.6379692
vt 0.0695000 0.4689569
vt 0.7400000 0.5000000
vt 0.5671250 0.4685485
vt 0.5890700 0.6397846
vt 0.2500000 0.5076923
vt 0.0695000 0.4689569
vt 0.1074050 0.2861477
vt 0.7400000 0.5000000
vt 0.6055287 0.2833338
vt 0.5671250 0.4685485
vt 0.2500000 0.5076923
vt 0.1074050 0.2861477
vt 0.1904350 0.1688738
vt 0.7400000 0.5000000
vt 0.6896513 0.1645169
vt 0.6055287 0.2833338
vt 0.2500000 0.5076923
vt 0.1904350 0.1688738
vt 0.2987350 0.1550769
vt 0.7400000 0.5000000
vt 0.7993763 0.1505385
vt 0.6896513 0.1645169
vt 0.2500000 0.5076923
vt 0.2987350 0.1550769
vt 0.3889850 0.2689015
vt 0.7400000 0.5000000
vt 0.8908137 0.2658608
vt 0.7993763 0.1505385
vt 0.2500000 0.5076923
vt 0.3889850 0.2689015
vt 0.4268900 0.4275662
vt 0.7400000 0.5000000
vt 0.9292175 0.4266131
vt 0.8908137 0.2658608
vt 0.2500000 0.5076923
vt 0.4268900 0.4275662
vt 0.4124500 0.6138246
vt 0.7400000 0.5000000
vt 0.9145875 0.6153223
vt 0.9292175 0.4266131
vt 0.2500000 0.5076923
vt 0.4124500 0.6138246
vt 0.3907900 0.7345477
vt 0.7400000 0.5000000
vt 0.8926425 0.7376338
vt 0.9145875 0.6153223
vt 0.2500000 0.5076923
vt 0.3907900 0.7345477
vt 0.3619100 0.8173292
vt 0.7400000 0.5000000
vt 0.8633825 0.8215046
vt 0.8926425 0.7376338
vn 0.0794110 0.5434271 0.8356918
vn 0.0794110 0.5434271 0.8356918
vn 0.0794110 0.5434271 0.8356918
vn 0.0794110 0.5434271 0.8356918
vn 0.0794110 0.5434271 0.8356918
vn 0.0794110 0.5434271 0.8356918
vn -0.2196538 0.5216778 0.8243813
vn -0.2196538 0.5216778 0.8243813
vn -0.2196538 0.5216778 0.8243813
vn -0.2196538 0.5216778 0.8243813
vn -0.2196538 0.5216778 0.8243813
vn -0.2196538 0.5216778 0.8243813
vn -0.5652478 0.2616666 0.7823206
vn -0.5652478 0.2616666 0.7823206
vn -0.5652478 0.2616666 0.7823206
vn -0.5652478 0.2616666 0.7823206
vn -0.5652478 0.2616666 0.7823206
vn -0.5652478 0.2616666 0.7823206
vn -0.6292180 0.1240589 0.7672640
vn -0.6292180 0.1240589 0.7672640
vn -0.6292180 0.1240589 0.7672640
vn -0.6292180 0.1240589 0.7672640
vn -0.6292180 0.1240589 0.7672640
vn -0.6292180 0.1240589 0.7672640
vn -0.6009161 -0.1916897 0.7759864
vn -0.6009161 -0.1916897 0.7759864
vn -0.6009161 -0.1916897 0.7759864
vn -0.6009161 -0.1916897 0.7759864
vn -0.6009161 -0.1916897 0.7759864
vn -0.6009161 -0.1916897 0.7759864
vn -0.3980577 -0.4335773 0.8084311
vn -0.3980577 -0.4335773 0.8084311
vn -0.3980577 -0.4335773 0.8084311
vn -0.3980577 -0.4335773 0.8084311
vn -0.3980577 -0.4335773 0.8084311
vn -0.3980577 -0.4335773 0.8084311
vn -0.0454469 -0.5488287 0.8346985
vn -0.0454469 -0.5488287 0.8346985
vn -0.0454469 -0.5488287 0.8346985
vn -0.0454469 -0.5488287 0.8346985
vn -0.0454469 -0.5488287 0.8346985
vn -0.0454469 -0.5488287 0.8346985
vn 0.3665579 -0.4471367 0.8159069
vn 0.3665579 -0.4471367 0.8159069
vn 0.3665579 -0.4471367 0.8159069
vn 0.3665579 -0.4471367 0.8159069
vn 0.3665579 -0.4471367 0.8159069
vn 0.3665579 -0.4471367 0.8159069
vn 0.5837443 -0.2145486 0.7830782
vn 0.5837443 -0.2145486 0.7830782
vn 0.5837443 -0.2145486 0.7830782
vn 0.5837443 -0.2145486 0.7830782
vn 0.5837443 -0.2145486 0.7830782
vn 0.5837443 -0.2145486 0.7830782
vn 0.6436147 0.0767651 0.7614901
vn 0.6436147 0.0767651 0.7614901
vn 0.6436147 0.0767651 0.7614901
vn 0.6436147 0.0767651 0.7614901
vn 0.6436147 0.0767651 0.7614901
vn 0.6436147 0.0767651 0.7614901
vn 0.6117582 0.1688630 0.7728112
vn 0.6117582 0.1688630 0.7728112
vn 0.6117582 0.1688630 0.7728112
vn 0.6117582 0.1688630 0.7728112
vn 0.6117582 0.1688630 0.7728112
vn 0.6117582 0.1688630 0.7728112
vn 0.5232133 0.2808207 0.8046040
vn 0.5232133 0.2808207 0.8046040
vn 0.5232133 0.2808207 0.8046040
vn 0.5232133 0.2808207 0.8046040
vn 0.5232133 0.2808207 0.8046040
vn 0.5232133 0.2808207 0.8046040
vn 0.1432150 0.9800519 0.1377958
vn 0.1432150 0.9800519 0.1377958
vn 0.1432150 0.9800519 0.1377958
vn 0.1432150 0.9800519 0.1377958
vn 0.1432150 0.9800519 0.1377958
vn 0.1432150 0.9800519 0.1377958
vn -0.3846618 0.9135717 0.1319928
vn -0.3846618 0.9135717 0.1319928
vn -0.3846618 0.9135717 0.1319928
vn -0.3846618 0.9135717 0.1319928
vn -0.3846618 0.9135717 0.1319928
vn -0.3846618 0.9135717 0.1319928
vn -0.9015558 0.4173516 0.1140829
vn -0.9015558 0.4173516 0.1140829
vn -0.9015558 0.4173516 0.1140829
vn -0.9015558 0.4173516 0.1140829
vn -0.9015558 0.4173516 0.1140829
vn -0.9015558 0.4173516 0.1140829
vn -0.9752952 0.1922927 0.1087331
vn -0.9752952 0.1922927 0.1087331
vn -0.9752952 0.1922927 0.1087331
vn -0.9752952 0.1922927 0.1087331
vn -0.9752952 0.1922927 0.1087331
vn -0.9752952 0.1922927 0.1087331
vn -0.9467313 -0.3020033 0.1117761
vn -0.9467313 -0.3020033 0.1117761
vn -0.9467313 -0.3020033 0.1117761
vn -0.9467313 -0.3020033 0.1117761
vn -0.9467313 -0.3020033 0.1117761
vn -0.9467313 -0.3020033 0.1117761
vn -0.6710191 -0.7308957 0.1245988
vn -0.6710191 -0.7308957 0.1245988
vn -0.6710191 -0.7308957 0.1245988
vn -0.6710191 -0.7308957 0.1245988
vn -0.6710191 -0.7308957 0.1245988
vn -0.6710191 -0.7308957 0.1245988
vn -0.0817434 -0.9871557 0.1372652
vn -0.0817434 -0.9871557 0.1372652
vn -0.0817434 -0.9871557 0.1372652
vn -0.0817434 -0.9871557 0.1372652
vn -0.0817434 -0.9871557 0.1372652
vn -0.0817434 -0.9871557 0.1372652
vn 0.6287705 -0.7669902 0.1279594
vn 0.6287705 -0.7669902 0.1279594
vn 0.6287705 -0.7669902 0.1279594
vn 0.6287705 -0.7669902 0.1279594
vn 0.6287705 -0.7669902 0.1279594
vn 0.6287705 -0.7669902 0.1279594
vn 0.9324531 -0.3427126 0.1143646
vn 0.9324531 -0.3427126 0.1143646
vn 0.9324531 -0.3427126 0.1143646
vn 0.9324531 -0.3427126 0.1143646
vn 0.9324531 -0.3427126 0.1143646
vn 0.9324531 -0.3427126 0.1143646
vn 0.9872831 0.1177551 0.1067977
vn 0.9872831 0.1177551 0.1067977
vn 0.9872831 0.1177551 0.1067977
vn 0.9872831 0.1177551 0.1067977
vn 0.9872831 0.1177551 0.1067977
vn 0.9872831 0.1177551 0.1067977
vn 0.9580320 0.2644447 0.1106511
vn 0.9580320 0.2644447 0.1106511
vn 0.9580320 0.2644447 0.1106511
vn 0.9580320 0.2644447 0.1106511
vn 0.9580320 0.2644447 0.1106511
vn 0.9580320 0.2644447 0.1106511
vn 0.8744252 0.4693243 0.1229442
vn 0.8744252 0.4693243 0.1229442
vn 0.8744252 0.4693243 0.1229442
vn 0.8744252 0.4693243 0.1229442
vn 0.8744252 0.4693243 0.1229442
vn 0.8744252 0.4693243 0.1229442
vn 0.0967314 0.6619544 -0.7432761
vn 0.0967314 0.6619544 -0.7432761
vn 0.0967314 0.6619544 -0.7432761
vn 0.0967314 0.6619544 -0.7432761
vn 0.0967314 0.6619544 -0.7432761
vn 0.0967314 0.6619544 -0.7432761
vn -0.2658393 0.6313684 -0.7284939
vn -0.2658393 0.6313684 -0.7284939
vn -0.2658393 0.6313684 -0.7284939
vn -0.2658393 0.6313684 -0.7284939
vn -0.2658393 0.6313684 -0.7284939
vn -0.2658393 0.6313684 -0.7284939
vn -0.6688200 0.3096127 -0.6758844
vn -0.6688200 0.3096127 -0.6758844
vn -0.6688200 0.3096127 -0.6758844
vn -0.6688200 0.3096127 -0.6758844
vn -0.6688200 0.3096127 -0.6758844
vn -0.6688200 0.3096127 -0.6758844
vn -0.7388989 0.1456840 -0.6578789
vn -0.7388989 0.1456840 -0.6578789
vn -0.7388989 0.1456840 -0.6578789
vn -0.7388989 0.1456840 -0.6578789
vn -0.7388989 0.1456840 -0.6578789
vn -0.7388989 0.1456840 -0.6578789
vn -0.7087413 -0.2260855 -0.6682598
vn -0.7087413 -0.2260855 -0.6682598
vn -0.7087413 -0.2260855 -0.6682598
vn -0.7087413 -0.2260855 -0.6682598
vn -0.7087413 -0.2260855 -0.6682598
vn -0.7087413 -0.2260855 -0.6682598
vn -0.4775218 -0.5201322 -0.7081210
vn -0.4775218 -0.5201322 -0.7081210
vn -0.4775218 -0.5201322 -0.7081210
vn -0.4775218 -0.5201322 -0.7081210
vn -0.4775218 -0.5201322 -0.7081210
vn -0.4775218 -0.5201322 -0.7081210
vn -0.0553275 -0.6681503 -0.7419664
vn -0.0553275 -0.6681503 -0.7419664
vn -0.0553275 -0.6681503 -0.7419664
vn -0.0553275 -0.6681503 -0.7419664
vn -0.0553275 -0.6681503 -0.7419664
vn -0.0553275 -0.6681503 -0.7419664
vn 0.4415387 -0.5386001 -0.7176026
vn 0.4415387 -0.5386001 -0.7176026
vn 0.4415387 -0.5386001 -0.7176026
vn 0.4415387 -0.5386001 -0.7176026
vn 0.4415387 -0.5386001 -0.7176026
vn 0.4415387 -0.5386001 -0.7176026
vn 0.6909735 -0.2539595 -0.6768014
vn 0.6909735 -0.2539595 -0.6768014
vn 0.6909735 -0.2539595 -0.6768014
vn 0.6909735 -0.2539595 -0.6768014
vn 0.6909735 -0.2539595 -0.6768014
vn 0.6909735 -0.2539595 -0.6768014
vn 0.7536667 0.0898912 -0.6510808
vn 0.7536667 0.0898912 -0.6510808
vn 0.7536667 0.0898912 -0.6510808
vn 0.7536667 0.0898912 -0.6510808
vn 0.7536667 0.0898912 -0.6510808
vn 0.7536667 0.0898912 -0.6510808
vn 0.7203794 0.1988457 -0.6644651
vn 0.7203794 0.1988457 -0.6644651
vn 0.7203794 0.1988457 -0.6644651
vn 0.7203794 0.1988457 -0.6644651
vn 0.7203794 0.1988457 -0.6644651
vn 0.7203794 0.1988457 -0.6644651
vn 0.6263646 0.3361844 -0.7033118
vn 0.6263646 0.3361844 -0.7033118
vn 0.6263646 0.3361844 -0.7033118
vn 0.6263646 0.3361844 -0.7033118
vn 0.6263646 0.3361844 -0.7033118
vn 0.6263646 0.3361844 -0.7033118
vn 0.0067078 0.0459027 0.9989234
vn 0.0067078 0.0459027 0.9989234
vn 0.0067078 0.0459027 0.9989234
vn 0.0080341 0.0549791 -0.9984552
vn 0.0080341 0.0549791 -0.9984552
vn 0.0080341 0.0549791 -0.9984552
vn -0.0187951 0.0446383 0.9988264
vn -0.0187951 0.0446383 0.9988264
vn -0.0187951 0.0446383 0.9988264
vn -0.0230877 0.0548334 -0.9982286
vn -0.0230877 0.0548334 -0.9982286
vn -0.0230877 0.0548334 -0.9982286
vn -0.0504168 0.0233391 0.9984555
vn -0.0504168 0.0233391 0.9984555
vn -0.0504168 0.0233391 0.9984555
vn -0.0646054 0.0299074 -0.9974626
vn -0.0646054 0.0299074 -0.9974626
vn -0.0646054 0.0299074 -0.9974626
vn -0.0568726 0.0112132 0.9983185
vn -0.0568726 0.0112132 0.9983185
vn -0.0568726 0.0112132 0.9983185
vn -0.0738228 0.0145552 -0.9971651
vn -0.0738228 0.0145552 -0.9971651
vn -0.0738228 0.0145552 -0.9971651
vn -0.0529595 -0.0168939 0.9984538
vn -0.0529595 -0.0168939 0.9984538
vn -0.0529595 -0.0168939 0.9984538
vn -0.0694925 -0.0221678 -0.9973361
vn -0.0694925 -0.0221678 -0.9973361
vn -0.0694925 -0.0221678 -0.9973361
vn -0.0333541 -0.0363303 0.9987831
vn -0.0333541 -0.0363303 0.9987831
vn -0.0333541 -0.0363303 0.9987831
vn -0.0433330 -0.0471997 -0.9979451
vn -0.0433330 -0.0471997 -0.9979451
vn -0.0433330 -0.0471997 -0.9979451
vn -0.0036740 -0.0443680 0.9990085
vn -0.0036740 -0.0443680 0.9990085
vn -0.0036740 -0.0443680 0.9990085
vn -0.0046503 -0.0561578 -0.9984111
vn -0.0046503 -0.0561578 -0.9984111
vn -0.0046503 -0.0561578 -0.9984111
vn 0.0304231 -0.0371109 0.9988479
vn 0.0304231 -0.0371109 0.9988479
vn 0.0304231 -0.0371109 0.9988479
vn 0.0370879 -0.0452408 -0.9982874
vn 0.0370879 -0.0452408 -0.9982874
vn 0.0370879 -0.0452408 -0.9982874
vn 0.0509369 -0.0187213 0.9985264
vn 0.0509369 -0.0187213 0.9985264
vn 0.0509369 -0.0187213 0.9985264
vn 0.0603346 -0.0221753 -0.9979319
vn 0.0603346 -0.0221753 -0.9979319
vn 0.0603346 -0.0221753 -0.9979319
vn 0.0584881 0.0069760 0.9982637
vn 0.0584881 0.0069760 0.9982637
vn 0.0584881 0.0069760 0.9982637
vn 0.0679498 0.0081045 -0.9976558
vn 0.0679498 0.0081045 -0.9976558
vn 0.0679498 0.0081045 -0.9976558
vn 0.0550090 0.0151841 0.9983704
vn 0.0550090 0.0151841 0.9983704
vn 0.0550090 0.0151841 0.9983704
vn 0.0638705 0.0176301 -0.9978025
vn 0.0638705 0.0176301 -0.9978025
vn 0.0638705 0.0176301 -0.9978025
vn 0.0454080 0.0243715 0.9986712
vn 0.0454080 0.0243715 0.9986712
vn 0.0454080 0.0243715 0.9986712
vn 0.0529722 0.0284314 -0.9981912
vn 0.0529722 0.0284314 -0.9981912
vn 0.0529722 0.0284314 -0.9981912
usemtl GrowthStone
s off
f 1/1/1 2/2/2 3/3/3
f 4/4/4 5/5/5 6/6/6
f 7/7/7 8/8/8 9/9/9
f 10/10/10 11/11/11 12/12/12
f 13/13/13 14/14/14 15/15/15
f 16/16/16 17/17/17 18/18/18
f 19/19/19 20/20/20 21/21/21
f 22/22/22 23/23/23 24/24/24
f 25/25/25 26/26/26 27/27/27
f 28/28/28 29/29/29 30/30/30
f 31/31/31 32/32/32 33/33/33
f 34/34/34 35/35/35 36/36/36
f 37/37/37 38/38/38 39/39/39
f 40/40/40 41/41/41 42/42/42
f 43/43/43 44/44/44 45/45/45
f 46/46/46 47/47/47 48/48/48
f 49/49/49 50/50/50 51/51/51
f 52/52/52 53/53/53 54/54/54
f 55/55/55 56/56/56 57/57/57
f 58/58/58 59/59/59 60/60/60
f 61/61/61 62/62/62 63/63/63
f 64/64/64 65/65/65 66/66/66
f 67/67/67 68/68/68 69/69/69
f 70/70/70 71/71/71 72/72/72
f 73/73/73 74/74/74 75/75/75
f 76/76/76 77/77/77 78/78/78
f 79/79/79 80/80/80 81/81/81
f 82/82/82 83/83/83 84/84/84
f 85/85/85 86/86/86 87/87/87
f 88/88/88 89/89/89 90/90/90
f 91/91/91 92/92/92 93/93/93
f 94/94/94 95/95/95 96/96/96
f 97/97/97 98/98/98 99/99/99
f 100/100/100 101/101/101 102/102/102
f 103/103/103 104/104/104 105/105/105
f 106/106/106 107/107/107 108/108/108
f 109/109/109 110/110/110 111/111/111
f 112/112/112 113/113/113 114/114/114
f 115/115/115 116/116/116 117/117/117
f 118/118/118 119/119/119 120/120/120
f 121/121/121 122/122/122 123/123/123
f 124/124/124 125/125/125 126/126/126
f 127/127/127 128/128/128 129/129/129
f 130/130/130 131/131/131 132/132/132
f 133/133/133 134/134/134 135/135/135
f 136/136/136 137/137/137 138/138/138
f 139/139/139 140/140/140 141/141/141
f 142/142/142 143/143/143 144/144/144
f 145/145/145 146/146/146 147/147/147
f 148/148/148 149/149/149 150/150/150
f 151/151/151 152/152/152 153/153/153
f 154/154/154 155/155/155 156/156/156
f 157/157/157 158/158/158 159/159/159
f 160/160/160 161/161/161 162/162/162
f 163/163/163 164/164/164 165/165/165
f 166/166/166 167/167/167 168/168/168
f 169/169/169 170/170/170 171/171/171
f 172/172/172 173/173/173 174/174/174
f 175/175/175 176/176/176 177/177/177
f 178/178/178 179/179/179 180/180/180
f 181/181/181 182/182/182 183/183/183
f 184/184/184 185/185/185 186/186/186
f 187/187/187 188/188/188 189/189/189
f 190/190/190 191/191/191 192/192/192
f 193/193/193 194/194/194 195/195/195
f 196/196/196 197/197/197 198/198/198
f 199/199/199 200/200/200 201/201/201
f 202/202/202 203/203/203 204/204/204
f 205/205/205 206/206/206 207/207/207
f 208/208/208 209/209/209 210/210/210
f 211/211/211 212/212/212 213/213/213
f 214/214/214 215/215/215 216/216/216
f 217/217/217 218/218/218 219/219/219
f 220/220/220 221/221/221 222/222/222
f 223/223/223 224/224/224 225/225/225
f 226/226/226 227/227/227 228/228/228
f 229/229/229 230/230/230 231/231/231
f 232/232/232 233/233/233 234/234/234
f 235/235/235 236/236/236 237/237/237
f 238/238/238 239/239/239 240/240/240
f 241/241/241 242/242/242 243/243/243
f 244/244/244 245/245/245 246/246/246
f 247/247/247 248/248/248 249/249/249
f 250/250/250 251/251/251 252/252/252
f 253/253/253 254/254/254 255/255/255
f 256/256/256 257/257/257 258/258/258
f 259/259/259 260/260/260 261/261/261
f 262/262/262 263/263/263 264/264/264
f 265/265/265 266/266/266 267/267/267
f 268/268/268 269/269/269 270/270/270
f 271/271/271 272/272/272 273/273/273
f 274/274/274 275/275/275 276/276/276
f 277/277/277 278/278/278 279/279/279
f 280/280/280 281/281/281 282/282/282
f 283/283/283 284/284/284 285/285/285
f 286/286/286 287/287/287 288/288/288
